<svg id="Layer_1" data-name="Layer 1" xmlns="http://www.w3.org/2000/svg" viewBox="0 0 182.16 89.59"><defs><style>.cls-1{fill:#fff;}</style></defs><title>IWDA_Logo_sticky_SVG</title><rect class="cls-1" width="17.35" height="89.59"/><polygon class="cls-1" points="67.79 54.47 62.14 0 49.77 0 43.58 54.47 37.93 0 21.11 0 34.3 89.58 48.56 89.58 54.88 43.04 60.66 89.58 75.32 89.58 89.45 0 73.98 0 67.79 54.47"/><path class="cls-1" d="M115.13.35H92.81V89.94h22.33c11.7,0,20.58-6.32,20.58-19.77v-49C135.71,7.75,126.84.35,115.13.35Zm3.36,69c0,3.77-1.48,5.65-4.84,5.65h-3.5V15.28h3.5c3.36,0,4.84,2,4.84,5.78Z" transform="translate(0 -0.35)"/><path class="cls-1" d="M149.3.35l-13,89.59h15.6l1.48-14.39H163.6l1.21,14.39h17.35L169.2.35Zm5.92,61.2,3.9-34.84,3,34.84Z" transform="translate(0 -0.35)"/></svg>