<svg id="Layer_1" data-name="Layer 1" xmlns="http://www.w3.org/2000/svg" viewBox="0 0 321.51 90.29"><defs><style>.cls-1{fill:#fff;}</style></defs><title>IWDA_Logo_SVG</title><rect class="cls-1" x="188.87" y="0.35" width="3.14" height="19.71"/><polygon class="cls-1" points="197.62 8.11 198.72 11.13 202.03 20.06 204.46 20.06 204.46 0.35 201.65 0.35 201.65 12.43 200.64 9.38 197.56 0.35 194.78 0.35 194.78 20.06 197.62 20.06 197.62 8.11"/><polygon class="cls-1" points="209.43 20.06 212.56 20.06 212.56 3.23 215.55 3.23 215.55 0.35 206.38 0.35 206.38 3.23 209.43 3.23 209.43 20.06"/><polygon class="cls-1" points="225.37 17.19 220.64 17.19 220.64 11.18 223.92 11.18 223.92 8.58 220.64 8.58 220.64 3.14 225.37 3.14 225.37 0.35 217.5 0.35 217.5 20.06 225.37 20.06 225.37 17.19"/><path class="cls-1" d="M230.78,11.4h1.54a1.28,1.28,0,0,1,1.27,1.45v4.23c0,1.54.47,2.72,1.69,2.72h1.92v-.89a3.14,3.14,0,0,1-.59-2v-4a2.77,2.77,0,0,0-1.92-2.72,2.72,2.72,0,0,0,1.86-2.78V3.88A3.56,3.56,0,0,0,232.68,0h-5V19.71h3.14Zm0-8.7h1.63c.74,0,1.07.44,1.07,1.27V7.55c0,.95-.41,1.39-1.18,1.39h-1.51Z" transform="translate(0 0.35)"/><polygon class="cls-1" points="242.05 8.11 243.15 11.13 246.46 20.06 248.89 20.06 248.89 0.35 246.08 0.35 246.08 12.43 245.07 9.38 241.99 0.35 239.21 0.35 239.21 20.06 242.05 20.06 242.05 8.11"/><path class="cls-1" d="M254.15,15.87H257l.5,3.85h3.2L257.44,0H254l-3.28,19.71h2.87Zm1.54-10.68,1,8h-2.13Z" transform="translate(0 0.35)"/><polygon class="cls-1" points="264.71 20.06 267.85 20.06 267.85 3.23 270.84 3.23 270.84 0.35 261.66 0.35 261.66 3.23 264.71 3.23 264.71 20.06"/><rect class="cls-1" x="272.79" y="0.35" width="3.14" height="19.71"/><path class="cls-1" d="M288,15.39V4.33a4.7,4.7,0,0,0-9.41,0V15.39a4.7,4.7,0,0,0,9.41,0Zm-6.24.24V4.09a1.54,1.54,0,1,1,3.08,0V15.63a1.54,1.54,0,1,1-3.08,0Z" transform="translate(0 0.35)"/><polygon class="cls-1" points="293.38 8.11 294.47 11.13 297.79 20.06 300.21 20.06 300.21 0.35 297.4 0.35 297.4 12.43 296.4 9.38 293.32 0.35 290.54 0.35 290.54 20.06 293.38 20.06 293.38 8.11"/><path class="cls-1" d="M305.3,0,302,19.71h2.87l.59-3.85h2.87l.5,3.85H312L308.76,0Zm.56,13.23,1.15-8,1,8Z" transform="translate(0 0.35)"/><polygon class="cls-1" points="316.99 17.22 316.99 0.35 313.85 0.35 313.85 20.06 321.51 20.06 321.51 17.22 316.99 17.22"/><polygon class="cls-1" points="193.54 43.35 195.34 31.64 196.97 43.35 199.75 43.35 202.89 23.65 199.99 23.65 198.39 36.81 196.74 23.65 194.31 23.65 192.44 36.81 191.03 23.65 187.92 23.65 190.79 43.35 193.54 43.35"/><path class="cls-1" d="M213.86,38.69V27.62a4.7,4.7,0,0,0-9.41,0V38.69a4.7,4.7,0,0,0,9.41,0Zm-3.17.24a1.54,1.54,0,1,1-3.08,0V27.38a1.54,1.54,0,1,1,3.08,0Z" transform="translate(0 0.35)"/><polygon class="cls-1" points="219.25 28.71 219.84 32.85 221.58 43.35 223.95 43.35 225.78 32.85 226.41 28.71 226.41 43.35 229.36 43.35 229.36 23.65 225.19 23.65 223.51 33.62 222.94 37.44 222.41 33.62 220.69 23.65 216.46 23.65 216.46 43.35 219.25 43.35 219.25 28.71"/><polygon class="cls-1" points="240.01 26.43 240.01 23.65 232.14 23.65 232.14 43.35 240.01 43.35 240.01 40.48 235.28 40.48 235.28 34.48 238.56 34.48 238.56 31.87 235.28 31.87 235.28 26.43 240.01 26.43"/><polygon class="cls-1" points="245.04 23.65 242.26 23.65 242.26 43.35 245.1 43.35 245.1 31.4 246.19 34.42 249.51 43.35 251.94 43.35 251.94 23.65 249.12 23.65 249.12 35.72 248.12 32.67 245.04 23.65"/><path class="cls-1" d="M254.27,28.57v.77a2.59,2.59,0,0,0,2.63-2.9V23.3h-2.49v3.49h1.15C255.57,28,255,28.57,254.27,28.57Z" transform="translate(0 0.35)"/><path class="cls-1" d="M268.11,38.51c0-2.48-1.42-4.47-3.34-6.45s-2.69-2.9-2.69-4.82a1.46,1.46,0,0,1,1.54-1.6c1,0,1.51.74,1.51,1.84v1.78H268V27.47a4.2,4.2,0,0,0-4.35-4.53c-3,0-4.59,2.16-4.59,4.82s1.89,4.82,3.52,6.45,2.52,3,2.52,4.73c0,1.1-.53,1.78-1.66,1.78s-1.66-.71-1.66-2V37.09h-2.87v1.75a4.25,4.25,0,0,0,4.62,4.53C266.07,43.36,268.11,41.64,268.11,38.51Z" transform="translate(0 0.35)"/><path class="cls-1" d="M193.66,46.59h-4.79V66.3h4.79c2.84,0,4.5-1.63,4.5-4.59V51.3C198.16,48.37,196.5,46.59,193.66,46.59ZM195,61.65c0,1.21-.47,1.86-1.57,1.86H192V49.4h1.45c1.1,0,1.57.62,1.57,1.86Z" transform="translate(0 0.35)"/><polygon class="cls-1" points="208.63 49.72 208.63 46.94 200.76 46.94 200.76 66.65 208.63 66.65 208.63 63.77 203.89 63.77 203.89 57.77 207.18 57.77 207.18 55.16 203.89 55.16 203.89 49.72 208.63 49.72"/><polygon class="cls-1" points="215.1 60.73 213.18 46.94 209.96 46.94 213.5 66.65 216.55 66.65 220.16 46.94 217.15 46.94 215.1 60.73"/><polygon class="cls-1" points="229.84 49.72 229.84 46.94 221.97 46.94 221.97 66.65 229.84 66.65 229.84 63.77 225.1 63.77 225.1 57.77 228.39 57.77 228.39 55.16 225.1 55.16 225.1 49.72 229.84 49.72"/><polygon class="cls-1" points="239.78 63.8 235.25 63.8 235.25 46.94 232.11 46.94 232.11 66.65 239.78 66.65 239.78 63.8"/><path class="cls-1" d="M241.61,50.91V62A4.7,4.7,0,0,0,251,62V50.91a4.7,4.7,0,0,0-9.41,0Zm6.24-.24V62.21a1.54,1.54,0,1,1-3.08,0V50.68a1.54,1.54,0,1,1,3.08,0Z" transform="translate(0 0.35)"/><path class="cls-1" d="M258.65,46.59h-5V66.3h3.14V58.52h1.89c2.25,0,3.84-1.24,3.84-4v-4C262.49,47.84,260.9,46.59,258.65,46.59Zm.8,8.11c0,.86-.33,1.3-1.07,1.3h-1.63V49.29h1.63c.74,0,1.07.44,1.07,1.3Z" transform="translate(0 0.35)"/><polygon class="cls-1" points="271.81 56.91 271.25 60.73 270.72 56.91 269 46.94 264.77 46.94 264.77 66.65 267.55 66.65 267.55 52 268.14 56.14 269.89 66.65 272.26 66.65 274.09 56.14 274.71 52 274.71 66.65 277.67 66.65 277.67 46.94 273.5 46.94 271.81 56.91"/><polygon class="cls-1" points="280.45 66.65 288.32 66.65 288.32 63.77 283.59 63.77 283.59 57.77 286.87 57.77 286.87 55.16 283.59 55.16 283.59 49.72 288.32 49.72 288.32 46.94 280.45 46.94 280.45 66.65"/><polygon class="cls-1" points="297.43 59.01 296.43 55.96 293.35 46.94 290.57 46.94 290.57 66.65 293.41 66.65 293.41 54.69 294.5 57.71 297.81 66.65 300.24 66.65 300.24 46.94 297.43 46.94 297.43 59.01"/><polygon class="cls-1" points="302.16 49.81 305.21 49.81 305.21 66.65 308.35 66.65 308.35 49.81 311.33 49.81 311.33 46.94 302.16 46.94 302.16 49.81"/><path class="cls-1" d="M191.17,69.89l-3.28,19.71h2.87l.59-3.85h2.87l.5,3.85h3.2l-3.28-19.71Zm.56,13.22,1.15-8,1,8Z" transform="translate(0 0.35)"/><path class="cls-1" d="M204.34,82.11h1.54v3.52a1.48,1.48,0,0,1-1.6,1.57,1.5,1.5,0,0,1-1.6-1.57V73.91a1.47,1.47,0,0,1,1.57-1.54,1.43,1.43,0,0,1,1.57,1.51v2.81h3V74.06a4.28,4.28,0,0,0-4.53-4.53,4.49,4.49,0,0,0-4.73,4.53V85.42c0,2.66,1.63,4.53,4.23,4.53a3.16,3.16,0,0,0,3-1.68l.47,1.33h1.69V79.74h-4.58Z" transform="translate(0 0.35)"/><polygon class="cls-1" points="211.41 89.94 219.28 89.94 219.28 87.07 214.54 87.07 214.54 81.06 217.83 81.06 217.83 78.46 214.54 78.46 214.54 73.02 219.28 73.02 219.28 70.23 211.41 70.23 211.41 89.94"/><polygon class="cls-1" points="228.39 82.31 227.38 79.26 224.3 70.23 221.52 70.23 221.52 89.94 224.36 89.94 224.36 77.98 225.46 81 228.77 89.94 231.2 89.94 231.2 70.23 228.39 70.23 228.39 82.31"/><path class="cls-1" d="M238.53,69.53a4.54,4.54,0,0,0-4.76,4.7v11a4.53,4.53,0,0,0,4.76,4.7A4.18,4.18,0,0,0,243,85.42V82.55h-2.78v2.93a1.63,1.63,0,0,1-3.26,0V74a1.63,1.63,0,0,1,3.26,0v2.9H243V74.06A4.18,4.18,0,0,0,238.53,69.53Z" transform="translate(0 0.35)"/><polygon class="cls-1" points="249.54 78.49 247.44 70.23 244.24 70.23 247.79 82.01 247.79 89.94 250.93 89.94 250.93 82.01 254.69 70.23 251.58 70.23 249.54 78.49"/><rect class="cls-1" y="0.35" width="17.35" height="89.59"/><polygon class="cls-1" points="67.79 54.82 62.14 0.35 49.77 0.35 43.58 54.82 37.93 0.35 21.11 0.35 34.3 89.93 48.56 89.93 54.88 43.39 60.66 89.93 75.32 89.93 89.45 0.35 73.98 0.35 67.79 54.82"/><path class="cls-1" d="M115.13,0H92.81V89.59h22.33c11.7,0,20.58-6.32,20.58-19.77v-49C135.71,7.4,126.84,0,115.13,0Zm3.36,69c0,3.77-1.48,5.65-4.84,5.65h-3.5V14.93h3.5c3.36,0,4.84,2,4.84,5.78Z" transform="translate(0 0.35)"/><path class="cls-1" d="M149.3,0l-13,89.59h15.6l1.48-14.39h10.22l1.21,14.39h17.35L169.2,0Zm5.92,61.2,3.9-34.84,3,34.84Z" transform="translate(0 0.35)"/></svg>